<?xml version="1.0" encoding="utf-8"?>
<!-- Generator: Adobe Illustrator 24.1.3, SVG Export Plug-In . SVG Version: 6.00 Build 0)  -->
<svg version="1.1" id="Layer_1" xmlns="http://www.w3.org/2000/svg" xmlns:xlink="http://www.w3.org/1999/xlink" x="0px" y="0px"
	 viewBox="0 0 193 75" style="enable-background:new 0 0 193 75;" xml:space="preserve">
<style type="text/css">
	.st0{fill:#FFFFFF;}
</style>
<g>
	<path class="st0" d="M14.4,4.5c1.3-1.3,3-2,5-2c2.7,0,4.7,0.9,5.9,2.7c0.7,1,1.1,2,1.1,3H23c-0.2-0.8-0.5-1.4-0.8-1.8
		c-0.6-0.7-1.5-1.1-2.7-1.1c-1.2,0-2.2,0.5-2.9,1.5c-0.7,1-1,2.4-1,4.2s0.4,3.2,1.1,4.1c0.7,0.9,1.7,1.4,2.8,1.4
		c1.2,0,2-0.4,2.7-1.2c0.3-0.4,0.6-1,0.8-1.9h3.4c-0.3,1.8-1,3.2-2.2,4.3c-1.2,1.1-2.7,1.7-4.6,1.7c-2.3,0-4.1-0.7-5.4-2.2
		c-1.3-1.5-2-3.6-2-6.2C12.2,8.2,12.9,6,14.4,4.5z"/>
	<path class="st0" d="M32.5,2.8h3.8L42.1,19h-3.7l-1.1-3.3h-6L30.3,19h-3.5L32.5,2.8z M32.3,12.9h4.1l-2-6.4L32.3,12.9z"/>
	<path class="st0" d="M45.3,14c0.1,0.7,0.3,1.3,0.6,1.7c0.6,0.7,1.5,1,2.9,1c0.8,0,1.5-0.1,2-0.3c1-0.3,1.4-1,1.4-1.9
		c0-0.5-0.2-0.9-0.7-1.2c-0.5-0.3-1.2-0.5-2.2-0.8l-1.8-0.4c-1.7-0.4-2.9-0.8-3.5-1.2c-1.1-0.7-1.6-1.9-1.6-3.5
		c0-1.4,0.5-2.7,1.6-3.6c1.1-1,2.6-1.4,4.7-1.4c1.7,0,3.2,0.5,4.4,1.4c1.2,0.9,1.9,2.2,1.9,3.9h-3.3c-0.1-1-0.5-1.7-1.3-2.1
		c-0.5-0.3-1.2-0.4-2-0.4c-0.9,0-1.6,0.2-2.1,0.5s-0.8,0.8-0.8,1.5c0,0.6,0.3,1,0.8,1.3c0.3,0.2,1.1,0.4,2.2,0.7l2.8,0.7
		c1.2,0.3,2.2,0.7,2.8,1.2c1,0.8,1.4,1.9,1.4,3.3c0,1.5-0.6,2.7-1.7,3.7c-1.1,1-2.8,1.5-4.8,1.5c-2.1,0-3.8-0.5-5-1.4
		c-1.2-1-1.8-2.3-1.8-4H45.3z"/>
	<path class="st0" d="M61.2,2.8H65L70.8,19h-3.7L66,15.7h-6L59,19h-3.5L61.2,2.8z M61,12.9h4.1l-2-6.4L61,12.9z"/>
	<g>
		<path class="st0" d="M84,3.5c1.1,0.4,2,1,2.7,2c0.6,0.8,0.9,1.6,1.1,2.6c0.2,0.9,0.3,1.8,0.3,2.6c0,2.1-0.4,3.9-1.3,5.4
			c-1.2,2-2.9,3-5.3,3h-6.9V3.1h6.9C82.6,3.1,83.4,3.2,84,3.5z M78,5.9v10.4H81c1.6,0,2.7-0.8,3.3-2.3c0.3-0.8,0.5-1.9,0.5-3
			c0-1.6-0.3-2.9-0.8-3.7c-0.5-0.9-1.5-1.3-3-1.3H78z"/>
		<path class="st0" d="M101.2,5.9h-8.4v3.4h7.7v2.8h-7.7v4.1h8.8V19h-12V3.1h11.7V5.9z"/>
	</g>
	<path class="st0" d="M28.2,37c-1.3,1.1-3.2,1.6-5.6,1.6H18v8h-4.6V24.4h9.6c2.2,0,4,0.6,5.3,1.7c1.3,1.2,2,2.9,2,5.3
		C30.2,34.1,29.5,35.9,28.2,37z M24.7,29c-0.6-0.5-1.4-0.7-2.5-0.7H18v6.6h4.2c1.1,0,1.9-0.3,2.5-0.8c0.6-0.5,0.9-1.4,0.9-2.5
		C25.6,30.3,25.3,29.5,24.7,29z"/>
	<path class="st0" d="M50,28.3H38.2V33H49v3.9H38.2v5.7h12.4v4H33.6V24.4H50V28.3z"/>
	<path class="st0" d="M65.8,24.8c1.6,0.5,2.8,1.5,3.8,2.8c0.8,1.1,1.3,2.3,1.6,3.6c0.3,1.3,0.4,2.5,0.4,3.7c0,3-0.6,5.5-1.8,7.5
		c-1.6,2.8-4.1,4.2-7.5,4.2h-9.6V24.4h9.6C63.8,24.4,64.9,24.5,65.8,24.8z M57.3,28.2v14.6h4.3c2.2,0,3.7-1.1,4.6-3.3
		c0.5-1.2,0.7-2.6,0.7-4.3c0-2.3-0.4-4-1.1-5.2c-0.7-1.2-2.1-1.8-4.3-1.8H57.3z"/>
	<path class="st0" d="M89,24.9c0.8,0.4,1.5,0.9,2.1,1.6c0.5,0.6,0.8,1.2,1.1,1.9c0.3,0.7,0.4,1.5,0.4,2.3c0,1.1-0.3,2.1-0.8,3.1
		c-0.5,1-1.4,1.7-2.6,2.2c1,0.4,1.8,1,2.2,1.8c0.4,0.8,0.6,1.9,0.6,3.5v1.5c0,1,0,1.7,0.1,2.1c0.1,0.6,0.4,1,0.9,1.3v0.6h-5.1
		c-0.1-0.5-0.2-0.9-0.3-1.2c-0.1-0.6-0.2-1.3-0.2-1.9l0-2.1c0-1.4-0.3-2.4-0.7-2.8c-0.5-0.5-1.4-0.7-2.7-0.7h-4.6v8.7h-4.6V24.4
		h10.7C87,24.4,88.2,24.6,89,24.9z M79.4,28.2v6h5c1,0,1.7-0.1,2.2-0.4c0.9-0.4,1.3-1.3,1.3-2.5c0-1.4-0.4-2.3-1.3-2.7
		c-0.5-0.3-1.2-0.4-2.2-0.4H79.4z"/>
	<path class="st0" d="M112.9,44.7c-1.7,1.7-4.1,2.6-7.3,2.6s-5.6-0.9-7.3-2.6c-2.3-2.1-3.4-5.2-3.4-9.2c0-4.1,1.1-7.2,3.4-9.2
		c1.7-1.7,4.1-2.6,7.3-2.6s5.6,0.9,7.3,2.6c2.3,2,3.4,5.1,3.4,9.2C116.2,39.5,115.1,42.6,112.9,44.7z M109.9,41.3
		c1.1-1.4,1.6-3.3,1.6-5.8c0-2.5-0.5-4.4-1.6-5.8c-1.1-1.4-2.6-2.1-4.4-2.1s-3.3,0.7-4.4,2s-1.7,3.3-1.7,5.8c0,2.5,0.6,4.4,1.7,5.8
		c1.1,1.4,2.6,2,4.4,2S108.9,42.7,109.9,41.3z M110.7,17.4l-4.6,4.5H103l2.9-4.5H110.7z"/>
	<path class="st0" d="M134.4,31.3c-0.4-1.5-1.2-2.6-2.6-3.2c-0.8-0.3-1.6-0.5-2.6-0.5c-1.8,0-3.3,0.7-4.4,2
		c-1.2,1.4-1.7,3.4-1.7,6.1c0,2.7,0.6,4.7,1.9,5.8c1.3,1.1,2.7,1.7,4.3,1.7c1.6,0,2.8-0.4,3.8-1.3s1.6-2.1,1.8-3.5h-5.2v-3.7h9.3v12
		h-3.1l-0.5-2.8c-0.9,1.1-1.7,1.8-2.4,2.2c-1.2,0.8-2.7,1.1-4.5,1.1c-3,0-5.4-1-7.3-3.1c-2-2.1-3-4.9-3-8.4c0-3.6,1-6.5,3-8.7
		s4.6-3.3,7.9-3.3c2.8,0,5.1,0.7,6.8,2.2c1.7,1.4,2.7,3.2,3,5.4H134.4z"/>
	<path class="st0" d="M148.4,24.4h5.3l7.9,22.3h-5.1l-1.5-4.6h-8.2l-1.5,4.6h-4.9L148.4,24.4z M149.9,18.6c0.3,0.1,0.5,0.1,0.7,0.2
		l1.4,0.5c0.4,0.1,0.7,0.2,0.8,0.3c0.1,0,0.3,0.1,0.4,0.1c0.5,0,0.8-0.1,1-0.4c0.2-0.3,0.3-0.6,0.4-0.9h2c-0.2,1.1-0.5,1.9-1.1,2.7
		c-0.5,0.7-1.3,1.1-2.4,1.1c-0.3,0-0.8-0.1-1.3-0.2c-0.3-0.1-0.7-0.2-1-0.3l-1.2-0.4c-0.2-0.1-0.3-0.1-0.5-0.1s-0.3,0-0.5,0
		c-0.4,0-0.7,0.1-0.9,0.3c-0.2,0.2-0.4,0.6-0.5,1h-2c0.2-1,0.5-1.8,0.9-2.4c0.6-1,1.6-1.4,2.9-1.4C149.4,18.5,149.6,18.6,149.9,18.6
		z M148.1,38.2h5.7l-2.8-8.8L148.1,38.2z"/>
	<path class="st0" d="M179.2,44.7c-1.7,1.7-4.1,2.6-7.3,2.6s-5.6-0.9-7.3-2.6c-2.3-2.1-3.4-5.2-3.4-9.2c0-4.1,1.1-7.2,3.4-9.2
		c1.7-1.7,4.1-2.6,7.3-2.6s5.6,0.9,7.3,2.6c2.3,2,3.4,5.1,3.4,9.2C182.6,39.5,181.4,42.6,179.2,44.7z M176.3,41.3
		c1.1-1.4,1.6-3.3,1.6-5.8c0-2.5-0.5-4.4-1.6-5.8c-1.1-1.4-2.6-2.1-4.4-2.1s-3.3,0.7-4.4,2s-1.7,3.3-1.7,5.8c0,2.5,0.6,4.4,1.7,5.8
		c1.1,1.4,2.6,2,4.4,2S175.2,42.7,176.3,41.3z"/>
	<path class="st0" d="M70.1,57.2c-0.4-1.6-1.3-2.7-2.7-3.3c-0.8-0.3-1.7-0.5-2.6-0.5c-1.9,0-3.4,0.7-4.6,2.1
		c-1.2,1.4-1.8,3.5-1.8,6.3c0,2.8,0.6,4.8,1.9,6c1.3,1.2,2.8,1.8,4.4,1.8c1.6,0,2.9-0.5,4-1.4c1-0.9,1.7-2.1,1.9-3.6h-5.3v-3.8h9.6
		V73h-3.2l-0.5-2.9c-0.9,1.1-1.8,1.9-2.5,2.3c-1.3,0.8-2.8,1.2-4.7,1.2c-3.1,0-5.5-1.1-7.5-3.2c-2-2.1-3-5-3-8.7c0-3.7,1-6.7,3.1-9
		c2.1-2.2,4.8-3.4,8.1-3.4c2.9,0,5.3,0.7,7.1,2.2c1.8,1.5,2.8,3.3,3.1,5.6H70.1z"/>
	<path class="st0" d="M92.3,50.6c0.8,0.4,1.6,0.9,2.2,1.6c0.5,0.6,0.9,1.2,1.2,1.9c0.3,0.7,0.4,1.5,0.4,2.4c0,1.1-0.3,2.2-0.8,3.2
		c-0.6,1.1-1.5,1.8-2.7,2.2c1.1,0.4,1.8,1,2.3,1.8c0.4,0.8,0.7,2,0.7,3.6V69c0,1.1,0,1.8,0.1,2.1c0.1,0.6,0.4,1,0.9,1.3V73h-5.3
		c-0.1-0.5-0.2-0.9-0.3-1.2c-0.1-0.6-0.2-1.3-0.2-2l0-2.1c0-1.5-0.3-2.4-0.8-2.9C89.3,64.2,88.4,64,87,64h-4.7v9h-4.7V50h11
		C90.2,50,91.4,50.2,92.3,50.6z M82.3,54v6.2h5.2c1,0,1.8-0.1,2.3-0.4c0.9-0.4,1.4-1.3,1.4-2.6c0-1.4-0.4-2.3-1.3-2.8
		c-0.5-0.3-1.2-0.4-2.2-0.4H82.3z"/>
	<path class="st0" d="M106.2,50h5.4l8.1,23h-5.2l-1.5-4.7h-8.5L103,73h-5L106.2,50z M105.9,64.3h5.9l-2.9-9.1L105.9,64.3z"/>
	<path class="st0" d="M121.6,50h5l9.1,16V50h4.5v23h-4.8l-9.4-16.3V73h-4.5V50z"/>
	<path class="st0" d="M157.2,50.5c1.6,0.5,2.9,1.5,3.9,2.9c0.8,1.1,1.3,2.4,1.6,3.7c0.3,1.3,0.4,2.6,0.4,3.8c0,3.1-0.6,5.7-1.8,7.8
		c-1.7,2.9-4.2,4.3-7.7,4.3h-9.9V50h9.9C155.1,50,156.3,50.2,157.2,50.5z M148.4,54v15h4.4c2.3,0,3.9-1.1,4.8-3.4
		c0.5-1.2,0.7-2.7,0.7-4.4c0-2.3-0.4-4.1-1.1-5.4c-0.7-1.3-2.2-1.9-4.4-1.9H148.4z"/>
	<path class="st0" d="M181.9,54.1h-12.2V59h11.2v4h-11.2v5.9h12.7V73H165V50h16.9V54.1z"/>
</g>
</svg>
